<?xml version="1.0" standalone="no"?><!DOCTYPE svg PUBLIC "-//W3C//DTD SVG 1.1//EN" "http://www.w3.org/Graphics/SVG/1.1/DTD/svg11.dtd"><svg t="1681964464029" class="icon" viewBox="0 0 1024 1024" version="1.1" xmlns="http://www.w3.org/2000/svg" p-id="5142" xmlns:xlink="http://www.w3.org/1999/xlink" width="200" height="200"><path d="M770.62 605.56c0.06 0 0.1-0.02 0.16-0.02 110.04-0.08 199.54-89.64 199.54-199.7 0-110.12-89.58-199.72-199.7-199.72-16.36 0-32.54 1.98-48.22 5.88-46.86-76.4-130.62-123.54-220.5-123.54-119.08 0-223.04 82.18-251.12 196.86a162.088 162.088 0 0 0-35.08-3.82c-89.34 0-162.02 72.68-162.02 162s72.6 161.96 161.88 162.04c0.04 0 0.08 0.02 0.12 0.02h75.62v59.82l-94.44 94.46c-0.46 0.44-0.84 0.94-1.2 1.44 0 0.02-0.02 0.02-0.02 0.04-0.3 0.46-0.56 0.94-0.78 1.42-0.04 0.1-0.1 0.2-0.16 0.3-0.22 0.54-0.38 1.08-0.5 1.64-0.02 0.08-0.06 0.16-0.06 0.22-0.14 0.68-0.22 1.38-0.22 2.06v85.96c-18.3 4.5-31.94 21-31.94 40.68 0 23.12 18.82 41.94 41.94 41.94s41.94-18.82 41.94-41.94c0-19.68-13.62-36.18-31.94-40.68v-81.88l94.46-94.46c0.28-0.28 0.5-0.58 0.74-0.9 0.16-0.2 0.34-0.38 0.48-0.58 0.28-0.42 0.48-0.84 0.7-1.28 0.06-0.16 0.16-0.28 0.22-0.44 0.22-0.52 0.38-1.06 0.5-1.62 0.02-0.08 0.06-0.16 0.08-0.24 0.14-0.68 0.2-1.38 0.2-2.08v-63.88h74.44v114.12l-42.48 42.48c-0.48 0.48-0.9 1-1.28 1.56-0.1 0.16-0.16 0.32-0.26 0.46-0.24 0.42-0.48 0.84-0.66 1.28-0.08 0.2-0.12 0.42-0.2 0.62-0.14 0.4-0.28 0.82-0.36 1.24-0.06 0.28-0.06 0.56-0.08 0.82-0.04 0.38-0.12 0.74-0.12 1.12v24.46c-18.3 4.52-31.92 21.02-31.92 40.7 0 23.12 18.8 41.92 41.92 41.92 23.14 0 41.94-18.8 41.94-41.92 0-19.68-13.64-36.2-31.94-40.7V773.4l42.5-42.5c0.46-0.46 0.88-0.98 1.24-1.52 0.18-0.26 0.28-0.52 0.42-0.78 0.18-0.32 0.36-0.62 0.5-0.94 0.14-0.34 0.22-0.68 0.32-1.04 0.08-0.28 0.2-0.54 0.26-0.84 0.12-0.64 0.2-1.3 0.2-1.96v-118.26h86.18v90.26c-18.32 4.5-31.96 21.02-31.96 40.7 0 23.12 18.82 41.94 41.94 41.94 23.14 0 41.94-18.82 41.94-41.94 0-19.68-13.62-36.18-31.92-40.68v-90.28h86.16v118.22c0 0.68 0.06 1.36 0.2 2.02 0.04 0.18 0.12 0.36 0.16 0.54 0.12 0.44 0.24 0.9 0.42 1.34 0.1 0.22 0.24 0.44 0.34 0.66 0.18 0.36 0.36 0.72 0.58 1.04 0.24 0.38 0.54 0.7 0.82 1.02 0.14 0.16 0.26 0.34 0.4 0.5l42.5 42.5v20.32c-18.3 4.5-31.94 21.02-31.94 40.7 0 23.12 18.82 41.92 41.94 41.92s41.94-18.8 41.94-41.92c0-19.68-13.64-36.18-31.94-40.7v-24.46c0-0.24-0.04-0.46-0.06-0.7-0.04-0.42-0.04-0.84-0.12-1.24-0.08-0.38-0.22-0.72-0.32-1.08-0.1-0.26-0.14-0.54-0.26-0.8-0.16-0.38-0.38-0.74-0.58-1.1-0.12-0.2-0.2-0.42-0.34-0.62a8.48 8.48 0 0 0-1.26-1.54l-42.48-42.5v-114.12h74.44v63.84c-0.02 1.36 0.24 2.72 0.78 4 0.02 0.08 0.08 0.14 0.12 0.22 0.22 0.5 0.48 1.02 0.8 1.48 0.06 0.08 0.12 0.14 0.18 0.22 0.32 0.44 0.64 0.88 1.04 1.26l94.44 94.46v81.88c-18.3 4.5-31.94 21-31.94 40.68 0 23.12 18.82 41.94 41.94 41.94 23.14 0 41.94-18.82 41.94-41.94 0-19.68-13.64-36.18-31.94-40.68v-85.98c0-0.68-0.06-1.36-0.2-2.02-0.02-0.14-0.08-0.26-0.12-0.4-0.12-0.5-0.26-1-0.46-1.48-0.06-0.16-0.16-0.3-0.24-0.46-0.2-0.42-0.4-0.86-0.68-1.26-0.1-0.14-0.22-0.26-0.34-0.4-0.28-0.38-0.54-0.76-0.88-1.08l-94.44-94.44v-59.84h58.1zM225.86 893.6c0 12.1-9.84 21.94-21.94 21.94-12.1 0-21.94-9.84-21.94-21.94s9.84-21.94 21.94-21.94c12.1 0 21.94 9.84 21.94 21.94z m146.38-59.18c0 12.08-9.84 21.92-21.94 21.92-12.08 0-21.92-9.84-21.92-21.92 0-12.1 9.84-21.94 21.92-21.94 12.1 0 21.94 9.84 21.94 21.94z m303.2 0c0 12.08-9.84 21.92-21.94 21.92s-21.94-9.84-21.94-21.92c0-12.1 9.84-21.94 21.94-21.94s21.94 9.84 21.94 21.94z m146.38 59.18c0 12.1-9.84 21.94-21.94 21.94s-21.94-9.84-21.94-21.94 9.84-21.94 21.94-21.94 21.94 9.84 21.94 21.94z m-297.98-157.08c0 12.08-9.84 21.94-21.94 21.94s-21.94-9.86-21.94-21.94c0-12.1 9.84-21.94 21.94-21.94s21.94 9.84 21.94 21.94z m178.68-201.64c-5.52 0-10 4.48-10 10v40.68h-74.44V512c0-5.52-4.48-10-10-10s-10 4.48-10 10v73.56h-86.16v-114.66c0-5.52-4.48-10-10-10s-10 4.48-10 10v114.66h-86.18V512c0-5.52-4.48-10-10-10-5.54 0-10 4.48-10 10v73.56h-74.44v-40.68c0-5.52-4.48-10-10-10s-10 4.48-10 10v40.68H215.8c-0.04 0-0.08-0.02-0.1-0.02-78.32 0-142.02-63.72-142.02-142.04 0-78.3 63.7-142 142.02-142 13.54 0 26.94 1.9 39.8 5.66 60.18 17.5 102.22 73.58 102.22 136.34 0 2.58-0.08 5.18-0.22 7.76a10.014 10.014 0 0 0 9.46 10.52c5.52 0.26 10.22-3.94 10.52-9.46 0.16-2.92 0.24-5.9 0.24-8.82 0-68.46-43.86-129.9-107.7-152.62 25.62-106.22 121.74-182.42 231.88-182.42 85.3 0 164.66 46.02 207.1 120.12 20.58 35.84 31.44 76.8 31.44 118.42 0 23.82-3.5 47.32-10.4 69.86-1.6 5.28 1.36 10.88 6.64 12.5a10.02 10.02 0 0 0 12.5-6.64c7.48-24.44 11.26-49.92 11.26-75.72 0-40.72-9.62-80.84-27.9-116.84a180.78 180.78 0 0 1 38.08-4.04c99.08 0 179.7 80.62 179.7 179.72 0 99.08-80.62 179.7-179.7 179.7-0.04 0-0.1 0.02-0.14 0.02h-57.96v-40.68c0-5.52-4.48-10-10-10z" fill="#23130D" p-id="5143"></path><path d="M821.82 893.6c0 12.1-9.84 21.94-21.94 21.94s-21.94-9.84-21.94-21.94 9.84-21.94 21.94-21.94 21.94 9.84 21.94 21.94zM675.44 834.42c0 12.08-9.84 21.92-21.94 21.92s-21.94-9.84-21.94-21.92c0-12.1 9.84-21.94 21.94-21.94s21.94 9.84 21.94 21.94zM523.84 736.52c0 12.08-9.84 21.94-21.94 21.94s-21.94-9.86-21.94-21.94c0-12.1 9.84-21.94 21.94-21.94s21.94 9.84 21.94 21.94zM372.24 834.42c0 12.08-9.84 21.92-21.94 21.92-12.08 0-21.92-9.84-21.92-21.92 0-12.1 9.84-21.94 21.92-21.94 12.1 0 21.94 9.84 21.94 21.94zM225.86 893.6c0 0.24 0 0.48-0.02 0.72a21.3 21.3 0 0 1-2.64 9.72c-0.88 1.66-1.98 3.16-3.26 4.52-1.2 1.3-2.56 2.44-4.04 3.4a21.488 21.488 0 0 1-9.96 3.48c-0.66 0.06-1.34 0.1-2.02 0.1-12.1 0-21.94-9.84-21.94-21.94 0-0.68 0.04-1.36 0.1-2.04a21.5 21.5 0 0 1 3.48-9.94c0.96-1.5 2.12-2.86 3.42-4.04 1.34-1.28 2.86-2.38 4.5-3.26 2.9-1.6 6.2-2.54 9.72-2.64 0.24-0.02 0.48-0.02 0.72-0.02 12.1 0 21.94 9.84 21.94 21.94z" fill="#F9C139" p-id="5144"></path><path d="M950.32 405.84c0 99.08-80.62 179.7-179.7 179.7-0.04 0-0.1 0.02-0.14 0.02h-57.96v-40.68c0-5.52-4.48-10-10-10s-10 4.48-10 10v40.68h-74.44V512c0-5.52-4.48-10-10-10s-10 4.48-10 10v73.56h-86.16v-114.66c0-5.52-4.48-10-10-10s-10 4.48-10 10v114.66h-86.18V512c0-5.52-4.48-10-10-10-5.54 0-10 4.48-10 10v73.56h-74.44v-40.68c0-5.52-4.48-10-10-10s-10 4.48-10 10v40.68H215.8c-0.04 0-0.08-0.02-0.1-0.02-78.32 0-142.02-63.72-142.02-142.04 0-78.3 63.7-142 142.02-142 13.54 0 26.94 1.9 39.8 5.66 60.18 17.5 102.22 73.58 102.22 136.34 0 2.58-0.08 5.18-0.22 7.76a10.014 10.014 0 0 0 9.46 10.52c5.52 0.26 10.22-3.94 10.52-9.46 0.16-2.92 0.24-5.9 0.24-8.82 0-68.46-43.86-129.9-107.7-152.62 25.62-106.22 121.74-182.42 231.88-182.42 85.3 0 164.66 46.02 207.1 120.12 20.58 35.84 31.44 76.8 31.44 118.42 0 23.82-3.5 47.32-10.4 69.86-1.6 5.28 1.36 10.88 6.64 12.5a10.02 10.02 0 0 0 12.5-6.64c7.48-24.44 11.26-49.92 11.26-75.72 0-40.72-9.62-80.84-27.9-116.84a180.78 180.78 0 0 1 38.08-4.04c99.08 0 179.7 80.62 179.7 179.72z" fill="#3594BF" p-id="5145"></path><path d="M501.9 118.46c81.732 0 157.764 44.1 198.428 115.1 19.7 34.306 30.112 73.534 30.112 113.44 0 22.82-3.352 45.34-9.97 66.96-3.194 10.538 2.762 21.734 13.284 24.962 1.904 0.582 3.878 0.878 5.868 0.878 8.838 0 16.522-5.684 19.122-14.154 7.762-25.362 11.698-51.822 11.698-78.646 0-37.576-8-75.08-23.228-109.278a171.918 171.918 0 0 1 23.408-1.602c93.572 0 169.7 76.136 169.7 169.72 0 93.572-76.126 169.7-169.7 169.7-0.214 0-0.426 0.006-0.638 0.02H722.52v-30.68c0-11.028-8.972-20-20-20s-20 8.972-20 20v30.68h-54.44V512c0-11.028-8.972-20-20-20s-20 8.972-20 20v63.56h-66.16v-104.66c0-11.028-8.972-20-20-20s-20 8.972-20 20v104.66h-66.18V512c0-11.028-8.972-20-20-20s-20 8.972-20 20v63.56h-54.44v-30.68c0-11.028-8.972-20-20-20s-20 8.972-20 20v30.68h-64.096l-0.068-0.02h-1.434c-72.796 0-132.02-59.232-132.02-132.04 0-72.786 59.224-132 132.02-132 12.614 0 25.06 1.77 37.008 5.262 55.942 16.268 95.012 68.384 95.012 126.738 0 2.28-0.07 4.708-0.208 7.254-0.558 10.99 7.924 20.416 18.98 21.016 0.318 0.016 0.638 0.022 0.952 0.022 10.65 0 19.442-8.314 20.02-18.924 0.17-3.088 0.254-6.24 0.254-9.368 0-69.502-42.134-132.162-105.764-158.724 13.006-45.916 40.646-87.238 78.5-117.084C400.72 135.944 450.952 118.46 501.9 118.46m0-10c-110.14 0-206.26 76.2-231.88 182.42 63.84 22.72 107.7 84.16 107.7 152.62 0 2.92-0.08 5.9-0.24 8.82-0.292 5.358-4.726 9.472-10.034 9.472a10.014 10.014 0 0 1-9.946-10.532c0.14-2.58 0.22-5.18 0.22-7.76 0-62.76-42.04-118.84-102.22-136.34a141.798 141.798 0 0 0-39.8-5.66c-78.32 0-142.02 63.7-142.02 142 0 78.32 63.7 142.04 142.02 142.04 0.02 0 0.06 0.02 0.1 0.02h75.5v-40.68c0-5.52 4.48-10 10-10s10 4.48 10 10v40.68h74.44V512c0-5.52 4.46-10 10-10 5.52 0 10 4.48 10 10v73.56h86.18v-114.66c0-5.52 4.48-10 10-10s10 4.48 10 10v114.66h86.16V512c0-5.52 4.48-10 10-10s10 4.48 10 10v73.56h74.44v-40.68c0-5.52 4.48-10 10-10s10 4.48 10 10v40.68h57.96c0.04 0 0.1-0.02 0.14-0.02 99.08 0 179.7-80.62 179.7-179.7 0-99.1-80.62-179.72-179.7-179.72-12.88 0-25.64 1.36-38.08 4.04 18.28 36 27.9 76.12 27.9 116.84 0 25.8-3.78 51.28-11.26 75.72a10.02 10.02 0 0 1-12.5 6.64c-5.28-1.62-8.24-7.22-6.64-12.5 6.9-22.54 10.4-46.04 10.4-69.86 0-41.62-10.86-82.58-31.44-118.42-42.44-74.1-121.8-120.12-207.1-120.12z" opacity=".2" p-id="5146"></path><path d="M213.52 913.32c-2.32 1.14-4.88 1.88-7.58 2.12l-23.86-23.88c0.24-2.68 0.98-5.24 2.12-7.56l29.32 29.32zM219.94 908.56c-1.2 1.3-2.56 2.44-4.04 3.4l-30.34-30.34c0.96-1.5 2.12-2.86 3.42-4.04l30.96 30.98zM225.84 894.32a21.3 21.3 0 0 1-2.64 9.72l-29.72-29.72c2.9-1.6 6.2-2.54 9.72-2.64l22.64 22.64z" fill="#FFFFFF" opacity=".4" p-id="5147"></path><path d="M359.87 854.17c-2.32 1.14-4.88 1.88-7.58 2.12l-23.86-23.88c0.24-2.68 0.98-5.24 2.12-7.56l29.32 29.32zM366.29 849.41c-1.2 1.3-2.56 2.44-4.04 3.4l-30.34-30.34c0.96-1.5 2.12-2.86 3.42-4.04l30.96 30.98zM372.19 835.17a21.3 21.3 0 0 1-2.64 9.72l-29.72-29.72c2.9-1.6 6.2-2.54 9.72-2.64l22.64 22.64z" fill="#FFFFFF" opacity=".4" p-id="5148"></path><path d="M511.46 756.28c-2.32 1.14-4.88 1.88-7.58 2.12l-23.86-23.88c0.24-2.68 0.98-5.24 2.12-7.56l29.32 29.32zM517.88 751.52c-1.2 1.3-2.56 2.44-4.04 3.4l-30.34-30.34c0.96-1.5 2.12-2.86 3.42-4.04l30.96 30.98zM523.78 737.28a21.3 21.3 0 0 1-2.64 9.72l-29.72-29.72c2.9-1.6 6.2-2.54 9.72-2.64l22.64 22.64z" fill="#FFFFFF" opacity=".4" p-id="5149"></path><path d="M663.06 854.17c-2.32 1.14-4.88 1.88-7.58 2.12l-23.86-23.88c0.24-2.68 0.98-5.24 2.12-7.56l29.32 29.32zM669.48 849.41c-1.2 1.3-2.56 2.44-4.04 3.4l-30.34-30.34c0.96-1.5 2.12-2.86 3.42-4.04l30.96 30.98zM675.38 835.17a21.3 21.3 0 0 1-2.64 9.72l-29.72-29.72c2.9-1.6 6.2-2.54 9.72-2.64l22.64 22.64z" fill="#FFFFFF" opacity=".4" p-id="5150"></path><path d="M809.44 913.36c-2.32 1.14-4.88 1.88-7.58 2.12L778 891.6c0.24-2.68 0.98-5.24 2.12-7.56l29.32 29.32zM815.86 908.6c-1.2 1.3-2.56 2.44-4.04 3.4l-30.34-30.34c0.96-1.5 2.12-2.86 3.42-4.04l30.96 30.98zM821.76 894.36a21.3 21.3 0 0 1-2.64 9.72l-29.72-29.72c2.9-1.6 6.2-2.54 9.72-2.64l22.64 22.64z" fill="#FFFFFF" opacity=".4" p-id="5151"></path></svg>