<?xml version="1.0" standalone="no"?><!DOCTYPE svg PUBLIC "-//W3C//DTD SVG 1.1//EN" "http://www.w3.org/Graphics/SVG/1.1/DTD/svg11.dtd"><svg t="1681905774817" class="icon" viewBox="0 0 1024 1024" version="1.1" xmlns="http://www.w3.org/2000/svg" p-id="12232" xmlns:xlink="http://www.w3.org/1999/xlink" width="200" height="200"><path d="M571.733333 696.888889c-51.2 0-99.555556-19.911111-139.377777-56.888889l28.444444-28.444444c59.733333 59.733333 159.288889 59.733333 219.022222 0l258.844445-258.844445c59.733333-59.733333 59.733333-159.288889 0-219.022222L890.311111 85.333333C830.577778 25.6 731.022222 25.6 671.288889 85.333333l-182.044445 182.044445-28.444444-28.444445L642.844444 56.888889c76.8-76.8 199.111111-76.8 275.911112 0L967.111111 105.244444c76.8 76.8 76.8 199.111111 0 275.911112l-258.844444 258.844444c-36.977778 36.977778-88.177778 56.888889-136.533334 56.888889zM241.777778 1024c-51.2 0-102.4-19.911111-139.377778-56.888889L56.888889 918.755556c-76.8-76.8-76.8-199.111111 0-275.911112l258.844444-258.844444c76.8-76.8 199.111111-76.8 275.911111 0l48.355556 48.355556-28.444444 28.444444-48.355556-48.355556c-59.733333-59.733333-159.288889-59.733333-219.022222 0L85.333333 671.288889C25.6 731.022222 25.6 830.577778 85.333333 890.311111L133.688889 938.666667c28.444444 28.444444 68.266667 45.511111 108.088889 45.511111s79.644444-17.066667 108.088889-45.511111l170.666666-170.666667 28.444445 28.444444-170.666667 170.666667c-34.133333 36.977778-82.488889 56.888889-136.533333 56.888889zM853.333333 179.2c5.688889-5.688889 14.222222-2.844444 19.911111 0 59.733333 62.577778-22.755556 139.377778-54.044444 173.511111l-8.533333 11.377778c-5.688889 5.688889-14.222222 5.688889-22.755556 2.844444-5.688889-5.688889-5.688889-14.222222-2.844444-22.755555l8.533333-11.377778c34.133333-39.822222 96.711111-91.022222 51.2-133.688889 0-2.844444 2.844444-14.222222 8.533333-19.911111z m-99.555555 227.555556c-5.688889-5.688889-5.688889-14.222222-2.844445-19.911112 5.688889-5.688889 14.222222-5.688889 19.911111-2.844444 5.688889 5.688889 5.688889 14.222222 2.844445 19.911111s-14.222222 8.533333-19.911111 2.844445z m-665.6 369.777777c5.688889-5.688889 14.222222-5.688889 19.911111 0s5.688889 14.222222 0 19.911111-14.222222 5.688889-19.911111 0-5.688889-14.222222 0-19.911111z m216.177778 105.244445c2.844444 5.688889 2.844444 14.222222-2.844445 19.911111-68.266667 54.044444-139.377778-36.977778-167.822222-68.266667l-11.377778-8.533333c-5.688889-5.688889-5.688889-14.222222 0-22.755556 5.688889-5.688889 14.222222-5.688889 22.755556 0l8.533333 8.533334c34.133333 36.977778 82.488889 105.244444 130.844444 62.577777 5.688889-2.844444 14.222222 0 19.911112 8.533334z" fill="#d81e06" p-id="12233"></path></svg>